<?xml version="1.0" encoding="UTF-8" standalone="no"?>
<svg
   xmlns:dc="http://purl.org/dc/elements/1.1/"
   xmlns:cc="http://creativecommons.org/ns#"
   xmlns:rdf="http://www.w3.org/1999/02/22-rdf-syntax-ns#"
   xmlns:svg="http://www.w3.org/2000/svg"
   xmlns="http://www.w3.org/2000/svg"
   xmlns:sodipodi="http://sodipodi.sourceforge.net/DTD/sodipodi-0.dtd"
   xmlns:inkscape="http://www.inkscape.org/namespaces/inkscape"
   enable-background="new 0 0 226.777 226.777"
   height="226.777px"
   id="Layer_1"
   version="1.1"
   viewBox="0 0 226.777 226.777"
   width="226.777px"
   xml:space="preserve"
   sodipodi:docname="icon.svg"
   inkscape:version="0.92.3 (2405546, 2018-03-11)"><metadata
     id="metadata9"><rdf:RDF><cc:Work
         rdf:about=""><dc:format>image/svg+xml</dc:format><dc:type
           rdf:resource="http://purl.org/dc/dcmitype/StillImage" /></cc:Work></rdf:RDF></metadata><defs
     id="defs7" /><sodipodi:namedview
     pagecolor="#ffffff"
     bordercolor="#666666"
     borderopacity="1"
     objecttolerance="10"
     gridtolerance="10"
     guidetolerance="10"
     inkscape:pageopacity="0"
     inkscape:pageshadow="2"
     inkscape:window-width="1920"
     inkscape:window-height="1017"
     id="namedview5"
     showgrid="false"
     inkscape:zoom="2.9434591"
     inkscape:cx="111.29493"
     inkscape:cy="139.88107"
     inkscape:window-x="-8"
     inkscape:window-y="-8"
     inkscape:window-maximized="1"
     inkscape:current-layer="Layer_1" /><path
     style="opacity:1;fill:#ffffff;fill-opacity:1;fill-rule:nonzero;stroke:none;stroke-opacity:1"
     d="M 57.41544,32.787548 H 173.26553 V 193.14309 H 57.41544 Z"
     id="rect843" /><path
     d="M113.313,0C50.732,0,0,50.732,0,113.313s50.732,113.313,113.313,113.313s113.313-50.732,113.313-113.313  S175.894,0,113.313,0z M111.844,188.386l-44.78-63.344l44.78,26.218V188.386z M111.844,141.976l-45.083-26.408l45.083-19.748  V141.976z M111.844,92.647l-43.631,19.11l43.631-73.306V92.647z M114.75,38.429l44.244,73.6L114.75,92.647V38.429z M114.75,188.386  V151.26l44.78-26.218L114.75,188.386z M114.75,141.977V95.821l45.116,19.762L114.75,141.977z"
     id="path2"
     fill="#231F20" /></svg>