<?xml version="1.0" encoding="UTF-8" standalone="no"?>
<!-- Generator: Adobe Illustrator 16.0.0, SVG Export Plug-In . SVG Version: 6.00 Build 0)  -->

<svg
   xmlns:dc="http://purl.org/dc/elements/1.1/"
   xmlns:cc="http://creativecommons.org/ns#"
   xmlns:rdf="http://www.w3.org/1999/02/22-rdf-syntax-ns#"
   xmlns:svg="http://www.w3.org/2000/svg"
   xmlns="http://www.w3.org/2000/svg"
   xmlns:sodipodi="http://sodipodi.sourceforge.net/DTD/sodipodi-0.dtd"
   xmlns:inkscape="http://www.inkscape.org/namespaces/inkscape"
   version="1.1"
   id="Capa_1"
   x="0px"
   y="0px"
   width="28.938px"
   height="25.005px"
   viewBox="0 0 28.938 25.005"
   style="enable-background:new 0 0 28.938 25.005;"
   xml:space="preserve"
   inkscape:version="0.48.5 r10040"
   sodipodi:docname="RKalert.svg"><metadata
   id="metadata39"><rdf:RDF><cc:Work
       rdf:about=""><dc:format>image/svg+xml</dc:format><dc:type
         rdf:resource="http://purl.org/dc/dcmitype/StillImage" /><dc:title></dc:title></cc:Work></rdf:RDF></metadata><defs
   id="defs37" /><sodipodi:namedview
   pagecolor="#ffffff"
   bordercolor="#666666"
   borderopacity="1"
   objecttolerance="10"
   gridtolerance="10"
   guidetolerance="10"
   inkscape:pageopacity="0"
   inkscape:pageshadow="2"
   inkscape:window-width="1280"
   inkscape:window-height="972"
   id="namedview35"
   showgrid="false"
   inkscape:zoom="14.83922"
   inkscape:cx="17.808455"
   inkscape:cy="17.087355"
   inkscape:window-x="-8"
   inkscape:window-y="-8"
   inkscape:window-maximized="1"
   inkscape:current-layer="Capa_1" />
<path
   style="fill:#8b3e2f;fill-opacity:1"
   d="M 28.817064,24.159973 14.947439,0.33658269 C 14.846674,0.16398558 14.661108,0.05823243 14.459578,0.05823243 c -0.197539,0 -0.382108,0.10575315 -0.47988,0.27835026 L 0.1040874,24.159973 c -0.1017625,0.174592 -0.1057532,0.388094 -0.00599,0.563684 C 0.2008575,24.897252 0.384429,25.005 0.5849609,25.005 H 28.334191 c 0.200532,0 0.388094,-0.107748 0.486863,-0.281343 0.04689,-0.08779 0.07383,-0.185567 0.07383,-0.280346 9.98e-4,-0.09877 -0.02594,-0.196541 -0.07782,-0.283338 z M 16.356151,8.5134956 15.895227,17.984388 H 13.51179 L 13.051864,8.5134956 h 3.304287 z M 14.702012,22.83307 h -0.0419 c -1.086464,0 -1.838708,-0.815097 -1.838708,-1.902559 0,-1.128366 0.772197,-1.902559 1.88061,-1.902559 1.108413,0 1.841701,0.773195 1.862652,1.902559 9.98e-4,1.087462 -0.732291,1.902559 -1.862652,1.902559 z"
   id="path3"
   inkscape:connector-curvature="0" />
<g
   id="g5"
   style="fill:#ffffff">
</g>
<g
   id="g7"
   style="fill:#ffffff">
</g>
<g
   id="g9"
   style="fill:#ffffff">
</g>
<g
   id="g11"
   style="fill:#ffffff">
</g>
<g
   id="g13"
   style="fill:#ffffff">
</g>
<g
   id="g15"
   style="fill:#ffffff">
</g>
<g
   id="g17"
   style="fill:#ffffff">
</g>
<g
   id="g19"
   style="fill:#ffffff">
</g>
<g
   id="g21"
   style="fill:#ffffff">
</g>
<g
   id="g23"
   style="fill:#ffffff">
</g>
<g
   id="g25"
   style="fill:#ffffff">
</g>
<g
   id="g27"
   style="fill:#ffffff">
</g>
<g
   id="g29"
   style="fill:#ffffff">
</g>
<g
   id="g31"
   style="fill:#ffffff">
</g>
<g
   id="g33"
   style="fill:#ffffff">
</g>
</svg>