<?xml version="1.0" encoding="UTF-8" standalone="no"?>
<svg
   xmlns:dc="http://purl.org/dc/elements/1.1/"
   xmlns:cc="http://creativecommons.org/ns#"
   xmlns:rdf="http://www.w3.org/1999/02/22-rdf-syntax-ns#"
   xmlns:svg="http://www.w3.org/2000/svg"
   xmlns="http://www.w3.org/2000/svg"
   xmlns:sodipodi="http://sodipodi.sourceforge.net/DTD/sodipodi-0.dtd"
   xmlns:inkscape="http://www.inkscape.org/namespaces/inkscape"
   enable-background="new 0 0 512 512"
   height="512px"
   id="Layer_1"
   version="1.1"
   viewBox="0 0 512 512"
   width="512px"
   xml:space="preserve"
   sodipodi:docname="iconInfo.svg"
   inkscape:version="0.92.3 (2405546, 2018-03-11)"><metadata
     id="metadata15"><rdf:RDF><cc:Work
         rdf:about=""><dc:format>image/svg+xml</dc:format><dc:type
           rdf:resource="http://purl.org/dc/dcmitype/StillImage" /></cc:Work></rdf:RDF></metadata><defs
     id="defs13" /><sodipodi:namedview
     pagecolor="#ffffff"
     bordercolor="#666666"
     borderopacity="1"
     objecttolerance="10"
     gridtolerance="10"
     guidetolerance="10"
     inkscape:pageopacity="0"
     inkscape:pageshadow="2"
     inkscape:window-width="1920"
     inkscape:window-height="1017"
     id="namedview11"
     showgrid="false"
     inkscape:zoom="0.4609375"
     inkscape:cx="256"
     inkscape:cy="256"
     inkscape:window-x="1912"
     inkscape:window-y="-8"
     inkscape:window-maximized="1"
     inkscape:current-layer="Layer_1" /><g
     id="g8"
     style="fill:#000000;fill-opacity:1"><path
       d="m 257.338,166.245 c 16.297,0 29.52,-13.223 29.52,-29.52 0,-16.317 -13.223,-29.501 -29.52,-29.501 -16.298,0 -29.52,13.185 -29.52,29.501 0,16.297 13.222,29.52 29.52,29.52 z"
       id="path2"
       inkscape:connector-curvature="0"
       style="fill:#000000;fill-opacity:1" /><polygon
       points="238.023,205.605 238.023,372.885 218.343,372.885 218.343,392.565 297.063,392.565 297.063,372.885 277.383,372.885 277.383,205.605 277.383,195.265 277.383,185.925 218.343,185.925 218.343,205.605 "
       id="polygon4"
       style="fill:#000000;fill-opacity:1" /><path
       d="m 256.108,9.65 c -135.857,0 -246,110.143 -246,246 0,135.877 110.143,246 246,246 135.857,0 246,-110.123 246,-246 0,-135.857 -110.142,-246 -246,-246 z m 0,472.32 c -124.797,0 -226.32,-101.533 -226.32,-226.32 0,-124.787 101.524,-226.32 226.32,-226.32 124.797,0 226.32,101.533 226.32,226.32 0,124.787 -101.523,226.32 -226.32,226.32 z"
       id="path6"
       inkscape:connector-curvature="0"
       style="fill:#000000;fill-opacity:1" /></g></svg>